# xmcd CD database file
# Copyright (C) 1993-1998 Ti Kan
# 
# Track frame offsets:
#     150
#     13957
#     25672
#     38512
#     51035
#     60840
#     78080
#     88235
#     99847
#     112585
#     124505
#     140570
#     157372
#     170845
# 
# Disc length: 2442 seconds
# 
# Revision: 1
# Processed by: cddbd v1.4b41PL1 Copyright (c) Steve Scherf et al.
# Submitted via: DiscPlay 4.0.4
# 
DISCID=a509880e
DTITLE=Various Artist - Country Music 4
DYEAR=1900
DGENRE=
TTITLE0=Riders In The Sky (Frankie Laine)
TTITLE1=Tarnished Angel (George Jones)
TTITLE2=It s Four In The Morning (Faron Young)
TTITLE3=Love Woman (Kenny Rogers)
TTITLE4=Half A Man (Willie Nelson)
TTITLE5=Every Road Leads Back To You (The Wilsons)
TTITLE6=Burning Memories (Waylon Jennings)
TTITLE7=C. Jam Blues (Bob Wills)
TTITLE8=Realese Me (Kitty Wells)
TTITLE9=Black Mountain Rag (Mickey Gilley)
TTITLE10=Do You Remember (Don Fardon)
TTITLE11=Good Ole Boy (Alan Borders)
TTITLE12=I d Hardly Noticed You Were Gone (Joni Bishop)
TTITLE13=That s Not The Kind Of Love I Need Tonight (The Wilsons)
EXTD=
EXTT0=
EXTT1=
EXTT2=
EXTT3=
EXTT4=
EXTT5=
EXTT6=
EXTT7=
EXTT8=
EXTT9=
EXTT10=
EXTT11=
EXTT12=
EXTT13=
PLAYORDER=
